<?xml version="1.0" standalone="no"?>
<!DOCTYPE svg PUBLIC "-//W3C//DTD SVG 20010904//EN"
 "http://www.w3.org/TR/2001/REC-SVG-20010904/DTD/svg10.dtd">
<svg version="1.0" xmlns="http://www.w3.org/2000/svg"
 width="284.000000pt" height="271.000000pt" viewBox="0 0 284.000000 271.000000"
 preserveAspectRatio="xMidYMid meet">
<metadata>
Created by potrace 1.15, written by Peter Selinger 2001-2017
</metadata>
<g transform="translate(0.000000,271.000000) scale(0.100000,-0.100000)"
fill="#000000" stroke="none">
<path d="M1295 2541 c-185 -30 -280 -100 -229 -168 26 -35 91 -67 168 -85 81
-18 371 -18 452 1 77 17 154 58 174 94 13 24 13 30 0 54 -38 67 -159 103 -365
108 -82 2 -173 0 -200 -4z m415 -55 c125 -37 151 -80 75 -123 -100 -56 -373
-76 -535 -40 -134 31 -193 83 -138 121 39 28 148 57 238 64 113 9 292 -2 360
-22z"/>
<path d="M754 2241 c-125 -20 -231 -77 -320 -172 -79 -85 -114 -170 -184 -449
-41 -168 -69 -257 -85 -282 l-25 -38 33 0 c43 0 141 26 171 45 22 15 23 14 36
-27 34 -115 104 -212 197 -274 32 -21 70 -51 85 -67 59 -65 57 -180 -4 -270
-24 -33 -20 -33 41 -3 48 25 111 86 111 108 0 9 3 9 13 -1 7 -7 12 -39 12 -80
0 -56 -5 -78 -31 -128 l-31 -60 39 9 c53 12 122 45 154 74 14 14 29 22 33 19
3 -4 6 -53 6 -109 0 -96 -2 -106 -32 -164 -18 -34 -30 -62 -28 -62 3 0 24 9
46 21 53 27 119 93 145 147 l21 42 7 -31 c21 -107 -26 -279 -98 -357 l-21 -24
30 8 c146 35 240 146 260 309 6 45 10 55 16 40 4 -11 8 -39 8 -62 1 -70 27
-55 45 25 33 149 29 288 -11 365 l-15 30 39 -7 38 -7 -72 72 c-40 39 -73 73
-73 75 0 2 24 4 53 4 l52 0 -115 61 c-158 83 -158 84 -47 84 78 0 99 4 137 24
l45 24 -75 13 c-89 15 -149 36 -207 70 -24 14 -43 26 -43 27 0 1 33 2 73 2 48
0 82 6 102 17 34 19 35 18 -66 42 -72 17 -193 67 -203 85 -5 7 10 11 46 11 74
0 87 12 41 34 -48 23 -133 85 -133 97 0 5 14 9 30 9 40 0 103 27 95 40 -3 5
-16 10 -28 10 -35 0 -141 55 -188 97 -49 44 -99 142 -99 193 1 50 32 112 75
147 78 64 192 70 310 14 55 -25 90 -52 168 -131 97 -99 98 -99 91 -62 -27 163
-181 313 -365 357 -79 18 -237 27 -305 16z m305 -45 c121 -33 232 -111 280
-197 l24 -43 -64 53 c-35 28 -93 66 -129 84 -58 29 -73 32 -155 32 -105 0
-148 -18 -208 -84 -62 -69 -72 -163 -26 -252 32 -64 105 -135 172 -169 l60
-30 -55 0 c-66 0 -147 22 -208 58 -29 16 -40 20 -31 9 15 -19 146 -87 168 -87
7 0 32 -17 56 -38 23 -21 55 -48 72 -61 l30 -23 -55 3 c-111 6 -53 -53 125
-128 73 -31 76 -33 35 -27 -25 4 -62 13 -82 20 l-38 13 14 -27 c33 -63 111
-115 219 -146 31 -9 57 -19 57 -23 0 -12 -176 6 -245 26 -38 11 -71 18 -73 17
-5 -6 93 -72 187 -127 80 -47 88 -54 65 -57 -26 -4 -26 -5 32 -64 44 -45 53
-59 37 -55 -20 4 -21 2 -13 -13 6 -11 15 -22 20 -25 19 -12 48 -81 59 -140 12
-63 5 -205 -10 -205 -5 0 -9 5 -9 11 0 16 -39 68 -59 78 -16 9 -17 6 -8 -51
10 -70 -4 -171 -33 -227 -19 -39 -112 -131 -131 -131 -8 0 -8 4 -2 13 6 6 21
39 33 72 34 89 34 242 0 345 l-25 75 -6 -66 c-10 -93 -40 -155 -98 -204 l-24
-20 7 20 c31 82 24 208 -16 293 l-22 46 -8 -35 c-10 -38 -64 -92 -110 -108
-29 -10 -30 -10 -23 12 33 105 28 185 -16 256 l-21 35 -18 -53 c-16 -49 -53
-101 -64 -90 -3 2 -1 24 5 48 11 50 4 101 -21 151 -21 40 -48 67 -105 102
-115 72 -213 239 -215 368 l-1 35 -20 -42 c-22 -44 -70 -75 -136 -87 l-32 -5
14 40 c8 22 35 124 61 227 25 103 56 220 70 260 63 188 210 318 399 352 66 12
247 4 314 -14z"/>
<path d="M1248 732 c13 -66 10 -153 -7 -181 -6 -9 -11 -1 -16 26 -10 52 -48
131 -85 173 l-30 35 34 -65 c41 -78 55 -126 64 -227 l7 -77 29 59 c38 78 45
163 21 250 -23 87 -35 91 -17 7z"/>
<path d="M1960 2243 c-241 -32 -405 -157 -456 -347 -8 -28 -14 -55 -14 -59 0
-4 41 35 91 88 74 76 106 102 166 132 122 60 238 57 318 -10 43 -35 74 -97 75
-147 0 -51 -50 -149 -99 -193 -47 -42 -153 -97 -188 -97 -12 0 -25 -5 -28 -10
-8 -13 55 -40 95 -40 16 0 30 -4 30 -8 0 -11 -52 -50 -118 -88 -60 -35 -54
-44 30 -44 42 0 48 -2 39 -14 -18 -21 -153 -74 -225 -88 -36 -7 -66 -15 -66
-19 0 -16 71 -34 133 -34 37 0 67 -1 67 -2 0 -1 -19 -13 -43 -27 -58 -34 -118
-55 -207 -70 l-75 -13 45 -24 c38 -20 59 -24 138 -24 109 0 111 3 -57 -87
l-106 -58 53 0 c28 0 52 -2 52 -4 0 -2 -35 -38 -77 -80 -60 -59 -71 -74 -50
-66 50 18 60 14 43 -18 -39 -76 -43 -216 -10 -364 18 -80 43 -94 45 -25 1 23
4 53 8 67 6 20 9 11 16 -40 4 -36 16 -89 27 -118 33 -89 133 -174 233 -197
l30 -7 -21 24 c-70 78 -116 235 -100 343 l7 46 25 -48 c28 -54 90 -116 146
-144 52 -26 53 -25 25 23 -46 80 -60 166 -42 260 l7 38 37 -29 c40 -32 96 -58
152 -70 l36 -8 -31 60 c-26 50 -31 72 -31 128 0 41 5 73 13 80 9 10 12 10 12
1 0 -22 63 -83 111 -108 27 -13 50 -24 53 -24 2 0 -8 24 -24 53 -35 66 -44
114 -29 170 13 54 44 89 126 145 92 62 156 148 188 253 l18 57 48 -24 c29 -15
75 -27 115 -31 l68 -6 -20 29 c-30 43 -38 68 -99 314 -37 146 -69 251 -92 300
-62 129 -187 239 -321 280 -64 20 -223 33 -292 23z m205 -33 c133 -19 279
-113 350 -225 45 -70 65 -131 124 -366 28 -113 57 -225 65 -247 l15 -41 -32 5
c-66 12 -112 42 -134 86 l-22 43 0 -36 c-1 -49 -27 -134 -63 -200 -34 -64 -89
-122 -168 -177 -93 -64 -130 -143 -112 -237 6 -27 8 -52 5 -55 -11 -11 -64 68
-70 104 l-6 39 -19 -23 c-10 -12 -26 -48 -35 -79 -13 -46 -14 -67 -6 -116 6
-33 14 -68 18 -77 6 -16 4 -16 -22 -8 -51 18 -102 68 -109 106 l-6 35 -20 -32
c-32 -52 -50 -159 -39 -227 5 -31 13 -66 17 -77 l7 -20 -24 20 c-58 49 -88
111 -98 204 l-6 66 -25 -75 c-43 -129 -31 -316 26 -407 21 -33 1 -28 -43 9
-56 49 -71 68 -92 123 -25 67 -33 138 -23 208 9 56 8 57 -12 44 -12 -8 -30
-30 -41 -50 -11 -21 -23 -37 -26 -37 -3 0 -9 33 -13 73 -10 117 20 233 73 281
27 25 27 35 -1 29 -17 -4 -8 10 37 56 59 61 59 61 30 61 -26 0 -16 9 65 58
108 65 193 122 188 127 -2 2 -35 -5 -73 -16 -67 -19 -245 -38 -245 -26 0 3 30
15 67 27 37 12 81 28 98 37 40 20 93 71 112 107 14 27 14 28 -3 21 -42 -17
-108 -35 -128 -34 -12 0 11 13 51 28 99 39 195 99 191 119 -2 13 -14 16 -58
13 l-55 -3 30 23 c17 13 49 40 72 61 24 21 49 38 56 38 24 0 153 68 173 92 19
21 18 21 -14 -1 -54 -38 -160 -71 -227 -71 l-60 0 52 25 c29 13 76 45 104 72
120 112 141 256 52 354 -60 66 -103 84 -208 84 -82 0 -97 -3 -157 -33 -37 -18
-95 -56 -130 -85 l-62 -52 24 44 c89 159 332 246 585 211z"/>
<path d="M1670 774 c-41 -106 -38 -213 6 -301 l29 -57 7 77 c9 100 23 148 64
227 l33 65 -30 -35 c-36 -42 -79 -129 -86 -177 -4 -23 -9 -30 -14 -21 -17 27
-20 114 -6 181 14 70 13 85 -3 41z"/>
</g>
</svg>
